<svg xmlns="http://www.w3.org/2000/svg" width="512" height="512" viewBox="0 0 512 512" version="1.1">
	<path d="M 236.500 0.605 C 180.750 6.328, 135.817 24.261, 95.054 57.056 C 82.733 66.968, 61.505 88.854, 52.189 101.249 C -7.824 181.094, -16.578 286.208, 29.425 374.585 C 41.709 398.184, 55.119 416.248, 75.435 436.565 C 95.752 456.881, 113.816 470.291, 137.415 482.575 C 187.678 508.739, 244.920 517.712, 300 508.061 C 392.844 491.793, 469.600 425.443, 499.049 336 C 504.473 319.524, 508.488 301.224, 510.029 285.946 C 510.608 280.200, 511.514 273.581, 512.041 271.236 C 513.320 265.546, 513.288 241.296, 512 240.500 C 511.450 240.160, 511 237.829, 511 235.319 C 511 232.810, 510.298 225.974, 509.439 220.128 C 501.220 164.163, 476.492 114.755, 436.868 75.132 C 397.293 35.557, 348.749 11.222, 292 2.512 C 281.937 0.967, 245.250 -0.293, 236.500 0.605 M 294.240 150.349 L 189.980 189.476 222.951 222.447 L 255.922 255.418 262.711 248.959 C 277.477 234.911, 400.421 111.007, 399.491 111.111 C 398.946 111.172, 351.583 128.829, 294.240 150.349 M 0.397 256 C 0.397 263.975, 0.553 267.238, 0.743 263.250 C 0.932 259.262, 0.932 252.738, 0.743 248.750 C 0.553 244.762, 0.397 248.025, 0.397 256 M 182.858 328.697 C 143.336 368.130, 111 400.707, 111 401.089 C 111 401.472, 158.470 383.945, 216.488 362.142 L 321.977 322.500 289.244 289.750 C 271.241 271.738, 256.108 257, 255.614 257 C 255.120 257, 222.380 289.264, 182.858 328.697" stroke="none" fill="black" fill-rule="evenodd"/>
</svg>