<svg xmlns="http://www.w3.org/2000/svg" width="524" height="541" viewBox="0 0 524 541" version="1.1">
	<path d="M 239.500 31.684 C 220.944 33.295, 195.682 38.956, 177 45.690 C 143.382 57.807, 113.723 76.481, 87.649 101.948 C 51.466 137.288, 28.626 178.222, 17.443 227.773 C 11.509 254.067, 11.509 307.933, 17.443 334.227 C 26.261 373.298, 42.816 407.745, 67.557 438.500 C 82.079 456.552, 112.993 484.208, 126 490.783 C 127.925 491.757, 134 495.084, 139.500 498.178 C 175.072 518.187, 212.479 528.486, 254.013 529.704 C 299.506 531.039, 338.172 522.209, 377.726 501.450 C 384.752 497.763, 393.008 493.435, 396.072 491.833 C 411.449 483.795, 440.578 458.005, 456.310 438.500 C 512.556 368.764, 527.468 274.490, 495.415 191.265 C 473.062 133.226, 429.715 85.442, 374.131 57.566 C 337.658 39.274, 301.044 30.767, 260.506 31.168 C 251.153 31.261, 241.700 31.493, 239.500 31.684 M 196 281 L 196 408 212 408 L 228 408 228 299.393 C 228 197.809, 228.109 190.828, 229.691 191.435 C 233.735 192.987, 282.957 221.267, 282.632 221.852 C 282.434 222.208, 274.354 236.226, 264.676 253.001 L 247.080 283.503 270.188 345.751 L 293.297 408 310.708 408 C 320.283 408, 327.912 407.663, 327.659 407.250 C 327.288 406.643, 293.213 317.266, 283.667 291.860 L 281.173 285.221 295.586 260.507 L 310 235.792 309.969 217.646 L 309.938 199.500 269.492 176.750 L 229.046 154 212.523 154 L 196 154 196 281" stroke="none" fill="black" fill-rule="evenodd"/>
</svg>